Patient4_TMGait_0pt6_02_left_38_EMG.mot
version=1
nRows=16
nColumns=33
inDegrees=no
endheader
time	1LAddLong	2LGlutMax	3LGlutMed	4LIliopsoas	5LSemiMemb	6LBicFemLong	7LRecFem	8LVastMed	9LVastLat	10LGasMed	11LTibAnt	12lTibPost	13LPeroneusLong	14LSol	15LExtDigLong	16LFlexDigLong	17RAddLong	18RGlutMax	19RGlutMed	20RIliopsoas	21RSemiMemb	22RBicFemLong	23RRecFem	24RVastMed	25RVastLat	26RGasMed	27RTibAnt	28RTibPost	29RPeroneusLong	30RSol	31RExtDigLong	32RFlexDigLong
47.655	0.013733	-0.04715	0.084686	0.007019	-0.008392	-0.016479	-0.093231	0.007477	0.070648	-0.02655	0.007477	-0.005646	0.016632	0.020599	0.041504	0.005188	-0.072632	0.032806	0.17212	0.16449	0.34607	-0.070801	-0.041809	0.044708	0.071411	-0.072479	0.10666	-0.013733	-0.093842	-0.093842	0.001678	-0.006866
47.656	0.009308	-0.062103	0.1413	-0.000305	-0.018005	0.003967	-0.089264	0.00473	0.065918	-0.071869	0.11841	0.007782	0.054626	0.06073	-0.066528	0.01709	-0.062408	-0.034943	0.084534	0.09491	0.28854	-0.30868	0.036469	0.15503	0.1712	0.024109	0.11292	-0.037537	-0.37262	0.00412	0.001373	-0.006409
47.657	0.00412	-0.081635	0.14786	0.007782	0.001984	0.00946	-0.071564	0.005341	0.072632	-0.11307	0.17929	0.000763	0.18341	0.10315	0.091095	0.009918	-0.022888	-0.037231	0.12009	0.003052	0.13977	-0.33951	0.13336	0.11047	0.17136	0.049438	0.070038	-0.04303	-0.63522	0.14267	0.002899	-0.016022
47.658	0.00946	-0.12009	0.080261	0.015106	0.011292	0.036469	-0.083923	0.007477	0.063324	-0.079956	0.16174	-0.005493	0.14404	0.081177	-0.21835	0.009613	-0.005341	-0.040741	0.21652	-0.021973	0.091553	0.001831	0.21866	0.072479	0.055695	0.044861	0.016632	-0.017395	-0.29709	0.037537	0	-0.014954
47.659	-0.002747	-0.1329	0.009308	0.007019	0.014343	0.037384	-0.081177	0.002441	0.053864	-0.010376	0.17822	0.005493	0.023804	-0.004578	-0.23651	0.001831	0.004272	-0.097198	-0.032806	0.005035	0.065308	0.029297	0.20401	0.02182	-0.043182	0.011902	-0.021667	0.00946	-0.077209	0.001068	0.003967	-0.020905
47.66	-0.000916	-0.14496	0.007782	0.00412	0.021057	0.063782	-0.081024	0.004578	0.050201	0.017853	0.089111	-0.017395	-0.014038	-0.041656	-0.34775	-0.020142	0.010071	-0.10834	-0.15091	0.027466	0.029755	-0.061951	0.31326	-0.028076	-0.18707	0.000458	0.04837	0.010376	-0.20645	0.063934	-0.000916	-0.019226
47.661	-0.005798	-0.09079	-0.027313	0.013275	-0.037994	0.080719	-0.080109	0.010529	0.058746	0.006561	-0.010071	-0.003815	0.037384	-0.072937	-0.27039	-0.011597	0.00946	-0.13641	-0.11459	-0.010223	0.022278	-0.12726	0.40176	-0.059204	-0.36316	-0.033112	0.041656	0.039673	0.061951	0.12695	0.000763	-0.022583
47.662	-0.013123	-0.07431	-0.085449	0.027313	-0.044098	0.11444	-0.06485	0.011902	0.053406	-0.010681	-0.069427	0.005951	0.056152	-0.085754	-0.14221	-0.000916	0.004272	-0.18646	0.28351	-0.027161	0.034637	-0.030975	0.25574	-0.046387	-0.48569	-0.009766	-0.049744	-0.012512	0.36453	0.18753	-0.000305	-0.011749
47.663	-0.001373	-0.064087	-0.076141	0.003815	-0.10284	0.10666	-0.067902	0.004425	0.053558	-0.04364	-0.11307	-0.003967	0.073547	-0.046692	-0.074921	0.003204	-0.006104	-0.15656	0.92941	-0.029755	0.039673	0.15091	0.083466	-0.058594	-0.39093	-0.037994	-0.044861	-0.028992	0.3093	0.19089	0.009918	-0.009766
47.664	-0.004578	-0.081635	0.052338	0.002441	-0.087128	0.074005	-0.074615	0.008392	0.048828	-0.032349	-0.075836	0	0.045776	-0.061951	-0.070648	0.010376	0.006561	-0.14984	0.66193	-0.01297	0.074463	0.26016	-0.13962	-0.011444	-0.1622	-0.045166	-0.050659	-0.016937	0.40832	0.031738	-0.001526	-0.015106
47.665	0.015869	-0.09903	0.10529	0.010986	-0.000305	0.041199	-0.081024	0.003204	0.062103	-0.032806	-0.14282	-0.000153	0.035553	-0.053406	0.091095	0.003204	0.024109	-0.19684	0.039368	0.020142	-0.090942	0.054169	-0.19134	0.071259	0.022736	-0.062103	-0.049744	0.11444	0.44083	-0.010986	-0.000916	-0.011292
47.666	0.02121	-0.13473	0.059662	0.004578	0.020905	-0.003357	-0.069427	0.007324	0.067444	-0.035706	-0.047302	-0.000763	0.034637	-0.022583	0.17044	0.014648	0.020142	-0.22263	-0.1741	0.010223	-0.17517	-0.15671	-0.13412	0.15701	0.27069	0.00885	-0.062256	0.006714	0.49972	-0.035706	0.000153	-0.005798
47.667	0.02594	-0.11124	0.026855	0.005646	0.026398	-0.033417	-0.092926	0.003967	0.041351	-0.042267	-0.025635	0.000763	0.020752	-0.032959	0.17624	0.007629	0.026093	-0.2327	-0.3389	-0.00824	-0.14648	-0.17822	0.029755	-0.007782	0.18631	0.11429	-0.013428	-0.040131	0.41992	-0.16815	0.003815	-0.001984
47.668	0.019836	-0.12634	-0.068817	0.007172	0.068359	-0.019836	-0.089569	0.003204	0.04776	-0.036316	-0.029755	-0.009918	0.040436	-0.052338	0.16144	-0.001068	-0.018005	-0.23544	0.083923	-0.071869	-0.050964	-0.10315	0.10391	-0.16357	-0.057831	0.087738	0.068207	-0.030823	0.085754	-0.1001	-0.002747	-0.007019
47.669	0.021057	-0.11093	-0.093689	0.005341	0.040436	-0.00824	-0.083618	0.004578	0.054932	-0.049133	0.018921	0.009155	0.054016	-0.02182	0.16464	0.008698	-0.049591	-0.24216	0.2948	-0.093994	0.015259	-0.010986	-0.15488	-0.15854	-0.14908	0.042114	0.066528	-0.010529	-0.38788	-0.053253	-0.002899	-0.005035
47.67	0.0177	-0.054779	-0.077362	-0.002899	0.003357	0.007019	-0.08316	-0.002441	0.043335	-0.077057	0.033112	-0.001068	-0.012207	-0.024261	0.14847	0.002747	-0.01358	-0.24094	0.31677	-0.078735	0.008545	-0.041962	-0.24826	-0.088959	-0.074005	0.022736	0.074615	-0.003052	-0.41397	-0.042114	-0.001526	-0.002136
